# Blender v2.76 (sub 0) OBJ File: 'test.blend'
# www.blender.org
mtllib cube.mtl
o Torus.003_Torus.010
v 0.993111 1.000215 -0.993203
v 0.008962 -0.003166 -0.990723
v 0.993004 -0.007581 -0.992636
v 0.999700 0.999303 0.000150
v -0.000514 1.002276 0.000148
v 0.016673 0.011071 -0.002694
v -0.008823 0.996423 -0.995308
v 0.999160 0.003214 -0.001010
vt 0.010525 0.904133
vt 0.979824 0.942412
vt 0.654319 0.032925
vt 0.022408 0.039621
vt 0.973576 0.976667
vt 0.979638 0.023145
vt 0.938013 0.026021
vt 0.042434 0.918060
vt 0.984399 0.936758
vt 0.008744 0.029651
vt 0.956706 0.055692
vt 0.954223 0.917506
vt 0.030836 0.902830
vt 0.039323 0.048739
vt 0.954865 0.047052
vt 0.025763 0.965415
vt 0.969848 0.925318
vt 0.948658 0.045273
vt 0.951544 0.918540
vt 0.932885 0.034131
vt 0.022595 0.928071
vt 0.972676 0.955857
vt 0.975134 0.060023
vt 0.030836 0.934080
vt 0.019093 0.961486
vt 0.977075 0.041646
vt 0.035176 0.940232
vt 0.023024 0.051267
vn 0.000000 0.002900 -1.000000
vn -1.000000 0.000100 0.006200
vn 0.004500 0.999900 -0.010900
vn 0.999800 0.017400 -0.008400
vn 0.999800 0.017800 -0.008100
vn 0.008000 0.999900 -0.014500
vn 0.001700 0.001200 -1.000000
vn 0.001900 0.000600 1.000000
vn -0.003000 -1.000000 -0.000900
vn 0.003800 -1.000000 0.005800
vn -1.000000 0.000500 0.006600
vn -0.002100 0.004500 1.000000
usemtl Wood
s off
f 5/1/1 4/2/1 6/3/1
f 8/4/2 1/5/2 3/6/2
f 2/7/3 8/8/3 3/9/3
f 5/1/4 6/3/4 7/10/4
f 6/11/5 2/12/5 7/13/5
f 2/7/6 6/14/6 8/8/6
f 6/3/7 4/2/7 8/15/7
f 1/16/8 2/17/8 3/18/8
f 1/19/9 4/20/9 5/21/9
f 1/22/10 5/23/10 7/24/10
f 4/25/11 1/5/11 8/4/11
f 2/26/12 1/27/12 7/28/12
